<svg xmlns="http://www.w3.org/2000/svg" xmlns:xlink="http://www.w3.org/1999/xlink" contentStyleType="text/css" data-diagram-type="DESCRIPTION" height="546px" preserveAspectRatio="none" style="width:1038px;height:546px;background:#FFFFFF;" version="1.1" viewBox="0 0 1038 546" width="1038px" zoomAndPan="magnify"><?plantuml 1.2026.5?><defs/><g><g class="title" data-source-line="3"><text fill="#000000" font-family="Verdana" font-size="22" font-weight="700" lengthAdjust="spacing" textLength="910.873" x="62.8162" y="35.4209">Diagrama de Arquitetura &#8212; Sistema Web de Gera&#231;&#227;o de Quest&#245;es com IA</text></g><!--cluster Frontend--><g class="cluster" data-qualified-name="Frontend" data-source-line="11" id="ent0002"><rect fill="#FFFFFF" height="119.3" rx="2.5" ry="2.5" style="stroke:#000000;stroke-width:1;" width="394" x="482" y="157.9094"/><text fill="#000000" font-family="Verdana" font-size="14" font-weight="700" lengthAdjust="spacing" textLength="72.2285" x="642.8857" y="172.9045">Frontend</text><text fill="#000000" font-family="Verdana" font-size="14" font-weight="700" lengthAdjust="spacing" textLength="44.7139" x="656.6431" y="189.2014">React</text></g><!--cluster Backend--><g class="cluster" data-qualified-name="Backend" data-source-line="16" id="ent0005"><rect fill="#FFFFFF" height="215.59" rx="2.5" ry="2.5" style="stroke:#000000;stroke-width:1;" width="367" x="12" y="317.2094"/><text fill="#000000" font-family="Verdana" font-size="14" font-weight="700" lengthAdjust="spacing" textLength="67.2109" x="161.8945" y="332.2045">Backend</text><text fill="#000000" font-family="Verdana" font-size="14" font-weight="700" lengthAdjust="spacing" textLength="137.4502" x="126.7749" y="348.5014">Python + FastAPI</text></g><!--entity Telas e Componentes--><g class="entity" data-qualified-name="Frontend.Telas e Componentes" data-source-line="12" id="ent0003"><rect fill="#FFFFFF" height="36.2969" rx="2.5" ry="2.5" style="stroke:#000000;stroke-width:1;" width="171.6279" x="506.19" y="216.9094"/><text fill="#000000" font-family="Verdana" font-size="14" lengthAdjust="spacing" textLength="151.6279" x="516.19" y="239.9045">Telas e Componentes</text></g><!--entity Servi?os HTTP--><g class="entity" data-qualified-name="Frontend.Servi.os HTTP" data-source-line="13" id="ent0004"><rect fill="#FFFFFF" height="36.2969" rx="2.5" ry="2.5" style="stroke:#000000;stroke-width:1;" width="119.5107" x="713.24" y="216.9094"/><text fill="#000000" font-family="Verdana" font-size="14" lengthAdjust="spacing" textLength="99.5107" x="723.24" y="239.9045">Servi&#231;os HTTP</text></g><!--entity Rotas REST--><g class="entity" data-qualified-name="Backend.Rotas REST" data-source-line="17" id="ent0006"><rect fill="#FFFFFF" height="36.2969" rx="2.5" ry="2.5" style="stroke:#000000;stroke-width:1;" width="100.1172" x="56.94" y="376.2094"/><text fill="#000000" font-family="Verdana" font-size="14" lengthAdjust="spacing" textLength="80.1172" x="66.94" y="399.2045">Rotas REST</text></g><!--entity Autentica??o JWT--><g class="entity" data-qualified-name="Backend.Autentica..o JWT" data-source-line="18" id="ent0007"><rect fill="#FFFFFF" height="36.2969" rx="2.5" ry="2.5" style="stroke:#000000;stroke-width:1;" width="142.8965" x="192.55" y="376.2094"/><text fill="#000000" font-family="Verdana" font-size="14" lengthAdjust="spacing" textLength="122.8965" x="202.55" y="399.2045">Autentica&#231;&#227;o JWT</text></g><!--entity Servi?o de Quest?es--><g class="entity" data-qualified-name="Backend.Servi.o de Quest.es" data-source-line="19" id="ent0008"><rect fill="#FFFFFF" height="36.2969" rx="2.5" ry="2.5" style="stroke:#000000;stroke-width:1;" width="163.8555" x="36.07" y="472.4994"/><text fill="#000000" font-family="Verdana" font-size="14" lengthAdjust="spacing" textLength="143.8555" x="46.07" y="495.4945">Servi&#231;o de Quest&#245;es</text></g><!--entity Servi?o de IA--><g class="entity" data-qualified-name="Backend.Servi.o de IA" data-source-line="20" id="ent0009"><rect fill="#FFFFFF" height="36.2969" rx="2.5" ry="2.5" style="stroke:#000000;stroke-width:1;" width="111.7998" x="235.1" y="472.4994"/><text fill="#000000" font-family="Verdana" font-size="14" lengthAdjust="spacing" textLength="91.7998" x="245.1" y="495.4945">Servi&#231;o de IA</text></g><!--entity Professor--><g class="entity" data-qualified-name="Professor" data-source-line="9" id="ent0001"><ellipse cx="867.9974" cy="65.6094" fill="#FFFFFF" rx="8" ry="8" style="stroke:#000000;stroke-width:1;"/><path d="M867.9974,73.6094 L867.9974,100.6094 M854.9974,81.6094 L880.9974,81.6094 M867.9974,100.6094 L854.9974,115.6094 M867.9974,100.6094 L880.9974,115.6094" fill="none" style="stroke:#000000;stroke-width:1;"/><text fill="#000000" font-family="Verdana" font-size="14" lengthAdjust="spacing" textLength="65.2148" x="835.39" y="130.6045">Professor</text></g><!--entity Database--><g class="entity" data-qualified-name="Database" data-source-line="23" id="ent0010"><path d="M115.09,214.2594 C115.09,204.2594 182.0026,204.2594 182.0026,204.2594 C182.0026,204.2594 248.9152,204.2594 248.9152,214.2594 L248.9152,255.8531 C248.9152,265.8531 182.0026,265.8531 182.0026,265.8531 C182.0026,265.8531 115.09,265.8531 115.09,255.8531 L115.09,214.2594" fill="#FFFFFF" style="stroke:#000000;stroke-width:1;"/><path d="M115.09,214.2594 C115.09,224.2594 182.0026,224.2594 182.0026,224.2594 C182.0026,224.2594 248.9152,224.2594 248.9152,214.2594" fill="none" style="stroke:#000000;stroke-width:1;"/><text fill="#000000" font-family="Verdana" font-size="14" lengthAdjust="spacing" textLength="113.8252" x="125.09" y="241.2545">Banco de Dados</text><text fill="#000000" font-family="Verdana" font-size="14" lengthAdjust="spacing" textLength="27.7061" x="125.09" y="257.5514">SQL</text></g><!--entity LLM--><g class="entity" data-qualified-name="LLM" data-source-line="25" id="ent0011"><path d="M292.7804,212.2551 C297.3687,206.2731 301.4602,206.6209 305.0616,213.2185 C307.9369,207.8143 312.6266,206.3483 316.4072,212.3153 C319.0903,206.6016 324.3431,206.3719 327.4196,211.9309 C329.5256,206.7243 334.3333,206.7755 337.4951,210.7755 C342.0617,206.3243 346.8012,205.4282 349.646,212.5788 C352.5675,206.1973 358.0205,205.8078 361.5447,212.0088 C363.4265,206.1884 368.2499,205.8597 371.6845,210.5041 C375.0668,204.6916 379.2079,205.8871 382.4502,210.6467 C386.4785,205.042 392.9413,204.5386 395.6838,211.9537 C398.5205,206.9244 403.3635,207.2657 406.2232,211.9286 C410.2292,206.4433 414.8847,206.51 417.9139,212.8909 C421.3855,207.3223 424.8617,208.1751 428.2191,213.0042 C431.9649,207.1356 436.492,206.3857 440.9854,212.1863 C444.4592,207.3754 449.0193,208.6342 450.8957,213.7767 C456.7815,215.2797 458.6514,220.1508 453.7624,224.5271 C459.9289,227.0935 460.0093,232.7553 454.3738,235.9531 C459.248,240.2632 458.7445,245.1242 453.2294,248.4855 C458.4191,252.6061 457.5647,257.2032 451.9808,260.1728 C448.9818,264.7187 443.5906,265.0837 441.2359,259.4901 C437.9556,266.7918 433.5621,266.5639 428.5066,261.2865 C424.755,266.5675 421.2484,266.2885 417.3825,261.4117 C413.9548,265.9443 410.1525,265.544 407.1861,260.8992 C403.3673,266.5852 399.6888,266.7804 395.5204,261.2632 C392.0348,267.9576 387.6088,267.7684 383.5525,261.8028 C380.0784,266.9676 375.6906,268.3491 371.9162,262.1092 C368.2798,268.3356 364.2328,267.6669 360.2623,262.4495 C357.5392,267.8263 352.0994,268.8866 349.0134,262.8058 C345.4339,267.6834 340.495,268.3435 337.7538,261.9671 C333.5552,265.8155 330.0648,266.7965 327.1785,260.5873 C323.8276,266.8474 318.2552,267.163 314.9757,260.5199 C311.5258,264.4977 307.1446,263.5631 304.9723,259.0201 C301.1319,265.5479 297.1596,264.2506 293.1052,259.2401 C286.7368,257.2009 285.0092,252.4363 289.0944,246.9779 C282.0871,245.0756 281.3683,241.3125 285.5207,235.8321 C281.2507,231.3969 283.464,226.9114 288.8363,225.601 C284.146,220.0861 284.8595,214.043 292.7804,212.2551" fill="#FFFFFF" style="stroke:#000000;stroke-width:1;"/><text fill="#000000" font-family="Verdana" font-size="14" lengthAdjust="spacing" textLength="62.2549" x="298.57" y="231.7545">API de IA</text><text fill="#000000" font-family="Verdana" font-size="14" lengthAdjust="spacing" textLength="144.8672" x="298.57" y="248.0514">LLM / Google Gemini</text></g><!--link Professor to Frontend--><g class="link" data-entity-1="ent0001" data-entity-2="ent0002" data-link-type="dependency" data-source-line="27" id="lnk12"><path d="M868,134.1994 C868,139.0469 868,144.1433 868,149.3637 C868,151.9739 868,154.6151 868,157.2717 C868,157.4377 868,152.6038 868,152.77" fill="none" id="Professor-to-Frontend" style="stroke:#000000;stroke-width:1;"/><polygon fill="#000000" points="868,157.77,872,148.77,868,152.77,864,148.77,868,157.77" style="stroke:#000000;stroke-width:1;stroke-linejoin:miter;stroke-miterlimit:10;"/><text fill="#000000" font-family="Verdana" font-size="13" lengthAdjust="spacing" textLength="153.5054" x="869" y="180.3563">interage com o sistema</text></g><!--link Frontend to Backend--><g class="link" data-entity-1="ent0002" data-entity-2="ent0005" data-link-type="dependency" data-source-line="29" id="lnk13"><path d="M868,277.7585 C868,282.0602 868,286.5471 868,291.15 C868,300.3556 868,310.025 868,319.6044 C868,357.9219 868,394.7994 868,394.7994 C868,394.7994 747.6025,394.7994 625.3238,394.7994 C564.1844,394.7994 502.5747,394.7994 455.3092,394.7994 C431.6765,394.7994 411.6298,394.7994 397.021,394.7994 C389.7166,394.7994 388.7717,394.7994 384.4177,394.7994" fill="none" id="Frontend-to-Backend" style="stroke:#000000;stroke-width:1;"/><polygon fill="#000000" points="379.4177,394.7994,388.4177,398.7994,384.4177,394.7994,388.4177,390.7994,379.4177,394.7994" style="stroke:#000000;stroke-width:1;stroke-linejoin:miter;stroke-miterlimit:10;"/><text fill="#000000" font-family="Verdana" font-size="13" lengthAdjust="spacing" textLength="193.0322" x="505.2" y="407.8663">chamadas REST autenticadas</text><text fill="#000000" font-family="Verdana" font-size="13" lengthAdjust="spacing" textLength="167.9146" x="517.7588" y="422.9991">Authorization: Bearer JWT</text></g><!--link Backend to Frontend--><g class="link" data-entity-1="ent0005" data-entity-2="ent0002" data-link-type="dependency" data-source-line="30" id="lnk14"><path d="M379.0105,384.7994 C380.092,384.7994 381.2725,384.7994 382.5483,384.7994 C385.1,384.7994 388.0329,384.7994 391.3178,384.7994 C404.4573,384.7994 423.228,384.7994 445.7528,384.7994 C490.8025,384.7994 550.8688,384.7994 610.935,384.7994 C731.0675,384.7994 851.2,384.7994 851.2,384.7994 C851.2,384.7994 851.2,347.5494 851.2,310.2994 C851.2,300.9869 851.2,291.6744 851.2,282.9439 C851.2,281.8526 851.2,280.7704 851.2,279.6984 C851.2,279.1624 851.2,278.629 851.2,278.0982 C851.2,277.8329 851.2,282.5682 851.2,282.3042" fill="none" id="Backend-to-Frontend" style="stroke:#000000;stroke-width:1;"/><polygon fill="#000000" points="851.2,277.3042,847.2,286.3042,851.2,282.3042,855.2,286.3042,851.2,277.3042" style="stroke:#000000;stroke-width:1;stroke-linejoin:miter;stroke-miterlimit:10;"/><text fill="#000000" font-family="Verdana" font-size="13" lengthAdjust="spacing" textLength="164.5566" x="690.05" y="365.8663">retorna JSON estruturado</text><text fill="#000000" font-family="Verdana" font-size="13" lengthAdjust="spacing" textLength="147.6655" x="698.4956" y="380.9991">com quest&#245;es geradas</text></g><!--link Backend to Database--><g class="link" data-entity-1="ent0005" data-entity-2="ent0010" data-link-type="dependency" data-source-line="32" id="lnk15"><path d="M379.1876,394.7994 C379.3167,394.7994 379.4469,394.7994 379.578,394.7994 C379.8404,394.7994 380.107,394.7994 380.3773,394.7994 C384.7034,394.7994 390.0169,394.7994 395.1788,394.7994 C405.5025,394.7994 415.22,394.7994 415.22,394.7994 C415.22,394.7994 415.22,321.7994 415.22,321.7994 C415.22,321.7994 220.73,321.7994 220.73,321.7994 C220.73,321.7994 220.73,295.8194 220.73,270.8794" fill="none" id="Backend-to-Database" style="stroke:#000000;stroke-width:1;"/><polygon fill="#000000" points="220.73,265.8794,216.73,274.8794,220.73,270.8794,224.73,274.8794,220.73,265.8794" style="stroke:#000000;stroke-width:1;stroke-linejoin:miter;stroke-miterlimit:10;"/><text fill="#000000" font-family="Verdana" font-size="13" lengthAdjust="spacing" textLength="131.9805" x="216.38" y="302.8663">salva e busca dados</text><text fill="#000000" font-family="Verdana" font-size="13" lengthAdjust="spacing" textLength="49.1309" x="257.8048" y="317.9991">via SQL</text></g><!--link Database to Backend--><g class="link" data-entity-1="ent0010" data-entity-2="ent0005" data-link-type="dependency" data-source-line="33" id="lnk16"><path d="M174.81,266.1594 C174.81,273.4031 174.81,281.5959 174.81,290.3874 C174.81,294.7831 174.81,299.3284 174.81,303.9797 C174.81,306.3053 174.81,308.6573 174.81,311.0304 C174.81,312.2169 174.81,313.4087 174.81,314.605 C174.81,315.2032 174.81,310.8025 174.81,311.4029" fill="none" id="Database-to-Backend" style="stroke:#000000;stroke-width:1;"/><polygon fill="#000000" points="174.81,316.4029,178.81,307.4029,174.81,311.4029,170.81,307.4029,174.81,316.4029" style="stroke:#000000;stroke-width:1;stroke-linejoin:miter;stroke-miterlimit:10;"/><text fill="#000000" font-family="Verdana" font-size="13" lengthAdjust="spacing" textLength="111.1094" x="153.2982" y="455.8663">retorna usu&#225;rios,</text><text fill="#000000" font-family="Verdana" font-size="13" lengthAdjust="spacing" textLength="117.9458" x="149.88" y="470.9991">disciplinas e listas</text></g><!--link Backend to LLM--><g class="link" data-entity-1="ent0005" data-entity-2="ent0011" data-link-type="dependency" data-source-line="35" id="lnk17"><path d="M358.45,316.9756 C358.45,313.4083 358.45,309.8355 358.45,306.2858 C358.45,292.0869 358.45,283.2569 358.45,271.6194" fill="none" id="Backend-to-LLM" style="stroke:#000000;stroke-width:1;"/><polygon fill="#000000" points="358.45,266.6194,354.45,275.6194,358.45,271.6194,362.45,275.6194,358.45,266.6194" style="stroke:#000000;stroke-width:1;stroke-linejoin:miter;stroke-miterlimit:10;"/><text fill="#000000" font-family="Verdana" font-size="13" lengthAdjust="spacing" textLength="301.8247" x="359.45" y="349.7763">envia prompt com tema (timeout fixo de 60s),</text><text fill="#000000" font-family="Verdana" font-size="13" lengthAdjust="spacing" textLength="152.6992" x="434.0127" y="364.9091">disciplina e par&#226;metros</text></g><!--link LLM to Backend--><g class="link" data-entity-1="ent0011" data-entity-2="ent0005" data-link-type="dependency" data-source-line="36" id="lnk18"><path d="M371.33,266.5294 C371.33,277.5919 371.33,290.64 371.33,304.0994 C371.33,307.4642 371.33,310.8548 371.33,314.2464 C371.33,315.0943 371.33,310.9423 371.33,311.79" fill="none" id="LLM-to-Backend" style="stroke:#000000;stroke-width:1;"/><polygon fill="#000000" points="371.33,316.79,375.33,307.79,371.33,311.79,367.33,307.79,371.33,316.79" style="stroke:#000000;stroke-width:1;stroke-linejoin:miter;stroke-miterlimit:10;"/><text fill="#000000" font-family="Verdana" font-size="13" lengthAdjust="spacing" textLength="172.1294" x="372.33" y="326.2463">retorna quest&#245;es em JSON</text></g><?plantuml-src RLD1SjD04BplAmQVe2059mu-KELW4fmou5YkoW7bC9R6zbQaNMLtP31KgdW47m0EUG4lq4zu2RDhIua2Dsjcjhkdf_s8DrGIL0LgenHhBWZ66jSEIuISOEIkQyt4jKFuy-qx9DepIUk2bg5zIWwRs-QN3H_dDNbkVfE7p9Om6IdbhxIfKB12fRA632Uy4mf76QDP5tHlfD26U5SHMCSRUw_XDvZRJzgiOOM59wKmO-jWC7DsHTvRDm3qq7qfrP71uCHPmsJorCn9diN9jWPV5S371HLI8tZTFY9_6Ue9kQrkRgs7jul5x5BTz72FCRkAiBETY3Nm54xGysWsYGo7xfvWRbbAypV98kAEQk5cdHryExjOzEXwHlxJcOoYa1mPb-Wfw31Px8p58v-Qv7mQ5OmF4oAwi7KE0v6s1qZDTFeEdiEfjUA_NB3KHiStKbUgin6EZbxTMJK4BJyShYaUruBV1q6fRYJCjuiF8Tj8WlB3ue3jqb99ZLYmiKv_GTRM3E6Oq94BJgZs_GDkHt9mWt2MV7WFueshGo1pcveWvhhBtLeK2eFguRHM28x7OejowsNjCudtthAjHX3RL3VNNwJbhdtT_73Q-cUfoRNFT2M1ZSafn8g7fC7Z8L04hvpaXgDlyR_pc7L9jcPOwS_nTYzV-2SzL06Lw3S_Is9dlGfW_nTrjpgLqPs_?></g></svg>